<mxfile host="app.diagrams.net" modified="2024-06-06T09:18:00.178Z" agent="Mozilla/5.0 (Windows NT 10.0; Win64; x64) AppleWebKit/537.36 (KHTML, like Gecko) Chrome/125.0.0.0 Safari/537.36" version="24.4.14" etag="YTh2HBguYB3UyxQ3Qkm-" type="github">
  <diagram name="Страница — 1" id="Z4Y09QIty4cxPE1o-lUa">
    <mxGraphModel>
      <root>
        <mxCell id="0" />
        <mxCell id="1" parent="0" />
      </root>
    </mxGraphModel>
  </diagram>
</mxfile>
